<svg xmlns="http://www.w3.org/2000/svg" xmlns:xlink="http://www.w3.org/1999/xlink" width="200" height="200" viewBox="0 0 200 200" fill="none"><g opacity="1"  transform="translate(0 0)"><mask id="bg-mask-0" fill="white"><use transform="translate(0 0)" xlink:href="#path_0"></use></mask><g mask="url(#bg-mask-0)" ><path id="路径 1" fill-rule="evenodd" style="fill:#FFD16C" opacity="1" d="M179.4 148.5L179.29 63.85C179.28 56.43 175.81 49.44 169.93 44.99L149.3 29.38C146.5 27.26 143.08 26.12 139.56 26.12L62.05 26.22C58.61 26.22 55.27 27.33 52.51 29.37L31.15 45.18C25.14 49.63 21.59 56.72 21.6 64.25L21.71 148.7C21.73 162.24 32.61 173.2 46.02 173.18L155.15 173.04C168.56 173.03 179.41 162.04 179.4 148.5Z"></path><path id="路径 2" fill-rule="evenodd" style="fill:#FFD16C" opacity="1" d="M169.93 44.9899L149.3 29.3799C146.5 27.2599 143.08 26.1099 139.56 26.1199L62.06 26.2199C58.62 26.2199 55.27 27.3299 52.5 29.3799L31.16 45.1799C27.08 48.1999 24.09 52.4599 22.63 57.3199L178.31 57.1199C176.88 52.2899 173.95 48.0299 169.93 44.9899Z"></path><path id="路径 3" fill-rule="evenodd" style="fill:#FFE8C0" opacity="1" d="M80.9 28.59L70.23 28.66L43.95 54.78L43.81 54.96C42.47 56.67 41.75 58.77 41.75 60.94L41.75 171C41.75 172.65 43.08 173.98 44.73 173.98L67.59 173.98L67.59 58.71L80.9 28.59Z"></path><path id="路径 4" fill-rule="evenodd" style="fill:#FFC50B" opacity="1" d="M135.6 170.46C162.1 170.46 178.89 172.89 178.89 141.75L178.89 57.38L176.03 57.71L176.24 52.73L145.76 28L124.34 25.35L155.03 60.22L154.81 60.25L154.81 144.84C154.81 155.88 153.04 170.46 135.6 170.46Z"></path><path id="分组 1" fill-rule="evenodd" style="fill:#434A54" opacity="1" d="M23.23 46.59C23.42 46.29 23.63 46 23.84 45.71C23.99 45.5 24.14 45.29 24.29 45.09C24.55 44.75 24.82 44.43 25.09 44.11C25.22 43.96 25.35 43.8 25.48 43.65C25.78 43.31 26.11 42.99 26.44 42.67C26.55 42.56 26.66 42.44 26.78 42.33C27.21 41.94 27.66 41.56 28.13 41.21C28.15 41.19 28.17 41.17 28.19 41.16L44.31 29.22L49.54 25.34C49.99 25.01 50.46 24.69 50.93 24.4C52.83 23.23 54.91 22.35 57.08 21.82C58.7 21.42 60.37 21.21 62.05 21.21L139.56 21.11L139.59 21.11C142.45 21.11 145.27 21.69 147.9 22.82C148.3 23 148.7 23.19 149.09 23.39C149.21 23.45 149.33 23.5 149.44 23.56C150.44 24.09 151.41 24.7 152.32 25.39L172.95 41C173.1 41.12 173.24 41.24 173.38 41.37C179.03 46.75 181.75 53.37 183.07 58.81C183.12 59 183.17 59.2 183.21 59.39C183.28 59.71 183.35 60.02 183.41 60.33C183.5 60.79 183.59 61.25 183.67 61.72C183.68 61.82 183.7 61.92 183.72 62.02C183.73 62.04 183.73 62.05 183.73 62.07C184.09 64.29 184.29 66.56 184.29 68.85L184.42 148.48C184.43 156.35 181.4 163.76 175.89 169.34C170.36 174.93 163.01 178.02 155.18 178.03L46.05 178.17L46.01 178.17C29.88 178.17 16.75 164.95 16.73 148.69L16.62 69.24C16.62 67.18 16.85 64.72 17.33 62.11L17.33 62.1C17.39 61.79 17.47 61.4 17.56 60.97C18.36 57.13 19.68 53.06 21.57 49.43C21.61 49.36 21.64 49.29 21.68 49.22C21.88 48.84 22.09 48.46 22.31 48.09C22.43 47.87 22.57 47.65 22.7 47.43C22.87 47.14 23.05 46.86 23.23 46.59ZM172.35 57.84L28.75 58.03C30.18 53.98 32.15 50.67 34.14 49.2L55.5 33.39C56.44 32.69 57.5 32.15 58.61 31.78L58.73 31.75C59.81 31.41 60.94 31.22 62.07 31.22L139.58 31.12L139.59 31.12C140.49 31.12 141.39 31.23 142.26 31.45C143.71 31.81 145.09 32.46 146.29 33.37L156.49 41.09L166.69 48.81C167.09 49.2 167.47 49.61 167.83 50.02C167.95 50.15 168.06 50.29 168.17 50.42C168.41 50.71 168.64 50.99 168.86 51.29L169.21 51.76C169.42 52.06 169.62 52.35 169.81 52.66C169.9 52.8 170 52.94 170.08 53.08C170.34 53.51 170.6 53.94 170.83 54.38C170.88 54.48 170.93 54.57 170.98 54.67C171.17 55.03 171.34 55.39 171.51 55.75C171.58 55.9 171.64 56.04 171.7 56.18C171.85 56.51 171.98 56.84 172.11 57.18C172.16 57.3 172.21 57.42 172.25 57.54C172.29 57.64 172.32 57.74 172.35 57.84ZM26.72 148.7C26.74 159.45 35.38 168.19 46 168.19L46.02 168.19L155.15 168.05C160.28 168.04 165.12 166.01 168.75 162.33C172.4 158.64 174.4 153.73 174.39 148.52L174.28 68.87C174.28 68.59 174.27 68.23 174.26 67.84L26.64 68.03C26.62 68.44 26.61 68.85 26.61 69.25L26.72 148.7Z"></path><path id="路径 8" fill-rule="evenodd" style="fill:#434A54" opacity="1" d="M120.39 140.51C117.63 140.51 115.39 142.75 115.39 145.51C115.39 148.27 117.63 150.51 120.39 150.51L157.35 150.51C160.11 150.51 162.35 148.27 162.35 145.51C162.35 142.75 160.11 140.51 157.35 140.51L120.39 140.51Z"></path></g></g><defs><rect id="path_0" x="0" y="0" width="200" height="200" rx="0" ry="0"/></defs></svg>