<svg xmlns="http://www.w3.org/2000/svg" xmlns:xlink="http://www.w3.org/1999/xlink" width="200" height="200" viewBox="0 0 200 200" fill="none"><g opacity="1"  transform="translate(0 0)"><mask id="bg-mask-0" fill="white"><use transform="translate(0 0)" xlink:href="#path_0"></use></mask><g mask="url(#bg-mask-0)" ><path id="路径 1" fill-rule="evenodd" style="fill:#FFE8B2" opacity="1" d="M174.8 150.6L174.8 58.13C174.8 45.08 164.22 34.5 151.17 34.5L49.43 34.5C36.3801 34.5 25.8 45.08 25.8 58.13L25.8 150.6C25.8 163.65 36.3801 174.23 49.43 174.23L151.18 174.23C164.23 174.23 174.81 163.65 174.8 150.6Z"></path><path id="路径 2" fill-rule="evenodd" style="fill:#F7DDA9" opacity="1" d="M26.51 68.96L26.51 145.82C26.51 179.98 53.16 173.35 67.88 173.35C51.39 170.12 48.74 157.75 48.74 150.68L48.74 70.58L26.51 68.96Z"></path><path id="路径 3" fill-rule="evenodd" style="fill:#E8BC70" opacity="1" d="M152.52 150.68C152.52 157.75 150.02 170.12 134.47 173.35C148.36 173.35 173.49 179.98 173.49 145.82L173.49 68.96L152.52 70.58L152.52 150.68Z"></path><path id="路径 4" fill-rule="evenodd" style="fill:#FFEECC" opacity="1" d="M46.41 151.46C46.41 160.39 50.72 172.5 66.8 172.5C71.25 172.61 72.03 170.18 72.03 170.18C72.03 170.18 59.51 174.27 59.51 151.22L59.51 72.7L46.41 73.54L46.41 151.46Z"></path><path id="路径 5" fill-rule="evenodd" style="fill:#FF8383" opacity="1" d="M49.43 34.06C36.3801 34.06 25.8 44.64 25.8 57.69L25.8 69.25L174.81 69.25L174.81 57.69C174.81 44.64 164.23 34.06 151.18 34.06L49.43 34.06Z"></path><path id="路径 6" fill-rule="evenodd" style="fill:#FFB8B8" opacity="1" d="M48.4 54.46C48.4 46.51 54.8 36.86 66.58 35.61L51.71 35.61C45.6 35.61 26.38 36.71 26.38 69.55L48.62 69.55C48.62 69.55 48.4 59.02 48.4 54.46Z"></path><path id="路径 7" fill-rule="evenodd" style="fill:#FC6565" opacity="1" d="M173.39 69.55C173.39 36.71 155.27 35.61 149.51 35.61L135.49 35.61C146.6 36.86 152.64 46.51 152.64 54.46C152.64 59.02 152.43 69.55 152.43 69.55L173.39 69.55Z"></path><path id="路径 8" fill-rule="evenodd" style="fill:#FFD9D9" opacity="1" d="M46.42 50.4501L46.42 72.3101L58.35 72.3101L58.35 50.5601C58.35 46.0201 57.79 40.8301 68.47 39.2301C62.27 37.0601 57.06 37.9001 57.06 37.9001C57.06 37.9001 46.42 39.5201 46.42 50.4501Z"></path><path id="分组 1" fill-rule="evenodd" style="fill:#434A54" opacity="1" d="M151.17 178.78L49.43 178.78C33.64 178.78 20.8 165.94 20.8 150.15L20.8 57.69C20.8 42.4 32.85 29.87 47.96 29.1C48.4501 29.07 48.94 29.06 49.43 29.06L61.4 29.06L61.4 24.89C61.4 22.13 63.64 19.89 66.4 19.89C69.16 19.89 71.4 22.13 71.4 24.89L71.4 29.06L129.21 29.06L129.21 24.89C129.21 22.13 131.45 19.89 134.21 19.89C136.97 19.89 139.21 22.13 139.21 24.89L139.21 29.06L151.18 29.06C166.96 29.06 179.81 41.91 179.8 57.69L179.8 150.15C179.8 165.94 166.96 178.78 151.17 178.78ZM134.2 52.31C136.96 52.31 139.2 50.07 139.2 47.31L139.2 39.06L151.17 39.06C161.44 39.06 169.8 47.42 169.8 57.69L169.8 64.25L30.8 64.25L30.8 57.69C30.8 47.42 39.16 39.06 49.43 39.06L61.4 39.06L61.4 47.31C61.4 50.07 63.64 52.31 66.4 52.31C69.16 52.31 71.4 50.07 71.4 47.31L71.4 39.06L129.2 39.06L129.2 47.31C129.2 50.07 131.44 52.31 134.2 52.31ZM169.81 74.25L169.81 150.16C169.81 160.43 161.45 168.79 151.18 168.79L49.43 168.79C39.16 168.79 30.8 160.43 30.8 150.16L30.8 74.25L169.81 74.25Z"></path><path id="路径 12" fill-rule="evenodd" style="fill:#434A54" opacity="1" d="M132.266 95.8978C130.226 94.0378 127.066 94.1678 125.206 96.2078L94.9959 129.348L78.7059 112.188C76.8059 110.188 73.6359 110.098 71.6359 112.008C69.6359 113.908 69.5559 117.078 71.4559 119.078L89.0959 137.658C90.6459 139.288 92.7859 140.208 95.0259 140.208L95.1059 140.208C97.3659 140.188 99.5359 139.208 101.066 137.538L132.596 102.958C134.456 100.918 134.306 97.7578 132.266 95.8978Z"></path></g></g><defs><rect id="path_0" x="0" y="0" width="200" height="200" rx="0" ry="0"/></defs></svg>