<svg xmlns="http://www.w3.org/2000/svg" xmlns:xlink="http://www.w3.org/1999/xlink" width="200" height="200" viewBox="0 0 200 200" fill="none"><g opacity="1"  transform="translate(0 0)"><mask id="bg-mask-0" fill="white"><use transform="translate(0 0)" xlink:href="#path_0"></use></mask><g mask="url(#bg-mask-0)" ><path id="路径 1" fill-rule="evenodd" style="fill:#C9C9F4" opacity="1" d="M169.66 142.8L169.66 55.5899C169.66 40.8099 157.67 28.8199 142.89 28.8199L55.6799 28.8199C40.8999 28.8199 28.9099 40.8099 28.9099 55.5899L28.9099 142.81C28.9099 157.59 40.8999 169.58 55.6799 169.58L142.89 169.58C157.67 169.58 169.66 157.59 169.66 142.8Z"></path><path id="路径 2" fill-rule="evenodd" style="fill:#B2B2EA" opacity="1" d="M150.81 50.5249L150.81 147.485C150.81 154.555 150.11 167.145 135.58 169.795C149.88 169.795 171.67 166.705 171.67 137.775L171.67 49.8749C171.67 39.7149 157.14 24.0249 129.48 29.5449C129.48 29.5449 150.81 35.7249 150.81 50.5249Z"></path><path id="路径 3" fill-rule="evenodd" style="fill:#E6E6FF" opacity="1" d="M27.22 49.8749L27.22 137.775C27.22 166.705 49.01 169.795 63.31 169.795C48.78 167.145 48.08 154.555 48.08 147.485L48.08 50.5249C48.08 35.7249 69.41 29.5449 69.41 29.5449C41.75 24.0249 27.22 39.7149 27.22 49.8749Z"></path><path id="路径 4" fill-rule="evenodd" style="fill:#F3F3FF" opacity="1" d="M47.55 52.952C47.55 76.362 48.25 142.032 48.25 147.482C48.25 152.932 47.66 169.122 66.14 171.112L78.84 169.492C78.84 169.492 59.8 168.162 59.8 145.342L59.8 56.262C59.8 42.422 66.34 33.882 77.3101 29.542C73.5 27.122 68.97 28.882 68.97 28.882C68.97 28.882 47.55 29.542 47.55 52.952Z"></path><path id="路径 5" fill-rule="evenodd" style="fill:#FFD16C" opacity="1" d="M132.06 67.5L132.06 27.12L66.5 27.12L66.5 67.49C66.5 76.75 74.01 84.26 83.27 84.26L115.3 84.26C124.56 84.26 132.06 76.76 132.06 67.5Z"></path><path id="路径 6" fill-rule="evenodd" style="fill:#FFC50B" opacity="1" d="M117.54 67.7601C117.54 70.3001 117.78 80.0201 108.28 82.0101C119.34 83.8901 132.68 76.6001 132.68 66.2201L132.68 29.5601L117.54 30.1001L117.54 67.7601Z"></path><path id="路径 7" fill-rule="evenodd" style="fill:#FFE8C0" opacity="1" d="M65.8799 29.55L65.8799 66.2101C65.8799 76.59 79.0999 83.8801 90.0599 82C80.6499 80.01 80.8799 70.3 80.8799 67.76L80.8799 30.1L65.8799 29.55Z"></path><path id="分组 1" fill-rule="evenodd" style="fill:#434A54" opacity="1" d="M53.97 22.12C36.45 22.12 22.2 36.37 22.2 53.89L22.2 144.52C22.2 162.04 36.45 176.29 53.97 176.29L144.6 176.29C162.12 176.29 176.37 162.04 176.37 144.52L176.37 53.89C176.37 36.37 162.12 22.12 144.6 22.12L53.97 22.12ZM61.5099 67.5L61.5099 32.12L53.97 32.12C41.97 32.12 32.2 41.89 32.2 53.89L32.2 144.52C32.2 156.52 41.97 166.29 53.97 166.29L144.6 166.29C156.6 166.29 166.37 156.52 166.37 144.52L166.39 144.52L166.39 53.89C166.39 41.89 156.62 32.12 144.62 32.12L137.08 32.12L137.08 67.5C137.08 79.5 127.31 89.26 115.31 89.26L83.28 89.26C71.27 89.26 61.5099 79.5 61.5099 67.5ZM71.5 32.12L71.5 67.5C71.5 73.98 76.78 79.26 83.27 79.26L115.29 79.26C121.78 79.26 127.06 73.99 127.06 67.5L127.06 32.12L71.5 32.12Z"></path><path id="路径 11" fill-rule="evenodd" style="fill:#434A54" opacity="1" d="M115.55 61.19L115.55 47.52C115.55 44.76 113.31 42.52 110.55 42.52C107.79 42.52 105.55 44.76 105.55 47.52L105.55 61.19C105.55 63.95 107.79 66.19 110.55 66.19C113.31 66.19 115.55 63.95 115.55 61.19Z"></path></g></g><defs><rect id="path_0" x="0" y="0" width="200" height="200" rx="0" ry="0"/></defs></svg>