<svg xmlns="http://www.w3.org/2000/svg" xmlns:xlink="http://www.w3.org/1999/xlink" width="200" height="200" viewBox="0 0 200 200" fill="none"><g opacity="1"  transform="translate(0 0)"><mask id="bg-mask-0" fill="white"><use transform="translate(0 0)" xlink:href="#path_0"></use></mask><g mask="url(#bg-mask-0)" ><path id="路径 1" fill-rule="evenodd" style="fill:#C0DAF9" opacity="1" d="M99.35 47.2573C65.9 18.5573 34 35.6173 25.03 41.5073C23.47 42.5373 22.54 44.2673 22.54 46.1373L22.54 160.427C22.54 162.777 25.17 164.177 27.11 162.857C41.7 152.997 77.97 144.727 99.68 170.247C133.41 143.967 161.89 156.447 172.54 163.007C174.51 164.217 177.03 162.827 177.03 160.527L177.03 45.4173C177.03 43.4073 175.94 41.5573 174.18 40.5773C163.36 34.5273 124.09 16.7973 99.35 47.2573Z"></path><path id="分组 1" fill-rule="evenodd" style="fill:#9EBFEF" opacity="1" d="M158.32 33.27L158.32 156.26C163.48 157.78 168.38 160.05 172.87 163.01C174.69 164.22 177.04 162.83 177.04 160.53L177.04 45.42C177.04 43.41 176.03 41.56 174.4 40.58C171.24 38.68 165.47 35.62 158.32 33.27ZM22.54 46.13C22.53 44.27 23.47 42.52 25.03 41.5C28.29 39.36 34.59 35.75 42.88 33.39L42.88 155.88C36.53 157.67 31.04 160.2 27.12 162.85C25.17 164.17 22.54 162.78 22.54 160.42L22.54 46.13ZM82.6701 36.38C88.1201 38.89 93.7201 42.42 99.3601 47.26C104.39 41.05 110.02 36.85 115.9 34.14L115.9 160.21C110.68 162.63 105.25 165.91 99.6801 170.25C94.6501 164.33 88.8201 160.25 82.6701 157.56L82.6701 36.38Z"></path><path id="分组 2" fill-rule="evenodd" style="fill:#E9F5FF" opacity="1" d="M51.3499 153.49L38.6899 155.99L38.6899 37.32L51.3499 30.99L51.3499 153.49ZM126.74 153.49L114.07 155.99L114.07 37.32L126.74 30.99L126.74 153.49Z"></path><path id="分组 3" fill-rule="evenodd" style="fill:#434A54" opacity="1" d="M185.28 170.135C183.9 173.705 180.17 175.785 176.41 175.075C172.65 174.375 169.93 171.085 169.93 167.255C160.14 161.225 134 149.845 102.76 174.175C100.65 175.835 97.61 175.525 95.88 173.475C76.38 150.555 43.3 157.945 29.92 166.985C27.49 168.635 24.34 168.805 21.75 167.425C19.16 166.055 17.54 163.355 17.54 160.415L17.54 46.1255C17.53 42.5755 19.32 39.2655 22.29 37.3155C31.67 31.1655 64.14 13.8055 98.79 40.3455C127.11 10.9255 168.37 31.5955 176.63 36.2055C179.97 38.0755 182.04 41.5955 182.04 45.4155L182.04 160.505C185.3 162.515 186.66 166.565 185.28 170.135ZM172.04 45.4183C172.04 45.2183 171.94 45.0383 171.76 44.9383C164.53 40.8983 127.82 22.4283 104.48 48.9483L104.78 160.588C134.55 141.928 159.76 150.338 172.04 156.948L172.04 45.4183ZM94.47 49.6865L94.77 158.806C83.43 150.356 70.82 148.276 61.24 148.276L60.7 148.276C47.14 148.386 35.25 152.426 27.55 156.736L27.55 46.1365C27.55 45.9465 27.64 45.7865 27.78 45.6865C35.88 40.3665 64.31 25.2065 94.47 49.6865Z"></path></g></g><defs><rect id="path_0" x="0" y="0" width="200" height="200" rx="0" ry="0"/></defs></svg>