<svg xmlns="http://www.w3.org/2000/svg" xmlns:xlink="http://www.w3.org/1999/xlink" width="200" height="200" viewBox="0 0 200 200" fill="none"><g opacity="1"  transform="translate(0 0)"><mask id="bg-mask-0" fill="white"><use transform="translate(0 0)" xlink:href="#path_0"></use></mask><g mask="url(#bg-mask-0)" ><path id="路径 1" fill-rule="evenodd" style="fill:#FFE8B2" opacity="1" d="M165.49 154.42L165.49 45.7401C165.49 33.9701 155.95 24.4301 144.18 24.4301L57.15 24.4301C45.38 24.4301 35.84 33.9701 35.84 45.7401L35.84 154.42C35.84 166.19 45.38 175.73 57.15 175.73L144.18 175.73C155.95 175.73 165.49 166.19 165.49 154.42Z"></path><path id="路径 2" fill-rule="evenodd" style="fill:#E8BC70" opacity="1" d="M145.63 48.0434L145.63 153.423C145.63 161.103 145.03 174.783 132.74 177.663C144.84 177.663 166.4 179.253 166.4 147.803C166.4 116.353 163.28 58.3634 163.28 47.3134C163.28 36.2634 150.99 19.2434 127.58 25.2434C127.58 25.2434 145.63 31.9634 145.63 48.0434Z"></path><path id="路径 3" fill-rule="evenodd" style="fill:#FFF2D7" opacity="1" d="M36.89 47.3245L36.89 146.945C36.89 178.385 59.14 177.665 73.74 177.665C58.91 174.785 58.19 161.105 58.19 153.424L58.19 48.0445C58.19 31.9645 79.96 25.2445 79.96 25.2445C51.73 19.2445 36.89 36.2845 36.89 47.3245Z"></path><path id="路径 4" fill-rule="evenodd" style="fill:#434A54" opacity="1" d="M132.5 180.73C135.26 180.73 137.51 178.48 137.51 175.72C137.51 172.96 135.27 170.72 132.51 170.72L57.6 170.72C48.36 170.72 40.84 163.2 40.84 153.96L40.84 46.18C40.84 36.94 48.36 29.42 57.6 29.42L143.74 29.42C152.98 29.42 160.5 36.94 160.5 46.18L160.5 121.14C160.5 123.9 162.74 126.14 165.5 126.14C168.26 126.14 170.5 123.9 170.5 121.14L170.5 46.18C170.5 31.42 158.49 19.42 143.74 19.42L57.6 19.42C42.84 19.42 30.84 31.42 30.84 46.18L30.84 153.97C30.84 168.73 42.84 180.73 57.6 180.73L132.5 180.73Z"></path><path id="路径 5" fill-rule="evenodd" style="fill:#FF954D" opacity="1" d="M101.77 155.39C111.92 161.24 124.42 161.24 134.57 155.39C144.71 149.53 150.96 138.7 150.96 126.99C150.96 108.89 136.27 94.2 118.17 94.2C100.07 94.2 85.38 108.89 85.38 126.99C85.38 138.7 91.63 149.53 101.77 155.39Z"></path><path id="路径 6" fill-rule="evenodd" style="fill:#FFAB66" opacity="1" d="M101.94 143.67C109.59 148.08 119.03 148.08 126.68 143.67C134.33 139.25 139.05 131.08 139.05 122.24C139.05 108.59 127.96 97.5 114.31 97.5C100.66 97.5 89.57 108.59 89.57 122.24C89.57 131.08 94.29 139.25 101.94 143.67Z"></path><path id="路径 7" fill-rule="evenodd" style="fill:#FFC89F" opacity="1" d="M109.08 133.12C118.01 133.12 125.26 125.87 125.26 116.94C125.26 108.01 118.01 100.76 109.08 100.76C100.15 100.76 92.9 108.01 92.9 116.94C92.9 125.87 100.15 133.12 109.08 133.12Z"></path><path id="分组 1" fill-rule="evenodd" style="fill:#434A54" opacity="1" d="M144.9 57.8C144.9 55.0401 142.66 52.8 139.9 52.8L59.06 52.8C56.3 52.8 54.06 55.0401 54.06 57.8C54.06 60.5601 56.3 62.8 59.06 62.8L139.9 62.8C142.66 62.8 144.9 60.5601 144.9 57.8ZM80.52 89.9301C80.52 87.1701 78.28 84.9301 75.52 84.9301L59.4 84.9301C56.64 84.9301 54.4 87.1701 54.4 89.9301C54.4 92.69 56.64 94.9301 59.4 94.9301L75.52 94.9301C78.28 94.9301 80.52 92.69 80.52 89.9301ZM162.448 174.489C161.248 174.489 160.048 174.069 159.088 173.199L141.188 156.979C135.918 161.029 129.658 163.629 122.888 164.479C121.298 164.679 119.708 164.779 118.148 164.779C99.3881 164.779 83.0781 150.779 80.6781 131.689C79.4181 121.679 82.1281 111.769 88.3281 103.799C94.5281 95.8288 103.448 90.7489 113.468 89.4888C123.478 88.2289 133.388 90.9489 141.358 97.1389C149.328 103.339 154.408 112.259 155.668 122.279C156.908 132.169 154.258 141.959 148.228 149.879L165.788 165.789C167.838 167.649 167.998 170.809 166.158 172.849C165.168 173.939 163.808 174.489 162.448 174.489ZM145.74 123.53C146.671 130.89 144.671 138.18 140.111 144.04C135.561 149.91 129.001 153.64 121.631 154.57C106.43 156.48 92.5005 145.66 90.5905 130.46C89.6705 123.09 91.6605 115.81 96.2205 109.95C100.781 104.09 107.34 100.35 114.701 99.4201C115.881 99.2701 117.05 99.2001 118.22 99.2001C124.361 99.2001 130.29 101.22 135.21 105.05C141.07 109.6 144.811 116.17 145.74 123.53Z"></path></g></g><defs><rect id="path_0" x="0" y="0" width="200" height="200" rx="0" ry="0"/></defs></svg>