<svg xmlns="http://www.w3.org/2000/svg" xmlns:xlink="http://www.w3.org/1999/xlink" width="200" height="200" viewBox="0 0 200 200" fill="none"><g opacity="1"  transform="translate(0 0)"><mask id="bg-mask-0" fill="white"><use transform="translate(0 0)" xlink:href="#path_0"></use></mask><g mask="url(#bg-mask-0)" ><path id="路径 1" fill-rule="evenodd" style="fill:#434A54" opacity="1" d="M170.76 149.07C170.76 162.55 159.79 173.52 146.31 173.52L50.9 173.52C37.42 173.52 26.45 162.55 26.45 149.07L26.45 56.9C26.45 43.42 37.42 32.45 50.9 32.45L99.1899 32.45C101.95 32.45 104.19 30.21 104.19 27.45C104.19 24.69 101.95 22.45 99.1899 22.45L50.9 22.45C31.9 22.45 16.45 37.91 16.45 56.9L16.45 149.07C16.45 168.07 31.91 183.52 50.9 183.52L146.31 183.52C165.31 183.52 180.76 168.07 180.76 149.07L180.76 103.43C180.76 100.67 178.52 98.43 175.76 98.43C173 98.43 170.76 100.67 170.76 103.43L170.76 149.07Z"></path><path id="路径 2" fill-rule="evenodd" style="fill:#FFD16C" opacity="1" d="M21.45 56.9L21.45 149.07C21.45 165.34 34.6399 178.52 50.9 178.52L146.31 178.52C162.58 178.52 175.76 165.33 175.76 149.07L175.76 103.43L175.93 62.03C176.01 42.96 160.57 27.45 141.5 27.45L50.9 27.45C34.63 27.45 21.45 40.64 21.45 56.9Z"></path><path id="路径 3" fill-rule="evenodd" style="fill:#FFE8C0" opacity="1" d="M20.4767 59.0567L20.4767 150.937C20.4767 174.647 50.7667 175.087 68.7267 175.087C43.4367 172.737 42.9167 157.567 42.9167 151.677L42.9167 53.7667C42.9167 30.3567 75.2667 26.0867 75.2667 26.0867C17.6167 25.7967 20.4767 44.7767 20.4767 59.0567Z"></path><path id="路径 4" fill-rule="evenodd" style="fill:#FFC50B" opacity="1" d="M153.43 54.8945L153.43 151.915C153.43 157.755 152.91 172.775 127.51 175.115C145.55 175.115 175.96 174.675 175.96 151.185L175.96 60.1445C175.96 45.9845 178.65 24.6945 120.94 27.4645C120.94 27.4645 153.43 31.6945 153.43 54.8945Z"></path><path id="路径 5" fill-rule="evenodd" style="fill:#434A54" opacity="1" d="M50.9 22.45C31.9 22.45 16.45 37.91 16.45 56.9L16.45 149.07C16.45 168.07 31.91 183.52 50.9 183.52L146.31 183.52C165.31 183.52 180.76 168.07 180.76 149.07L180.76 103.43C180.76 100.67 178.52 98.43 175.76 98.43C173 98.43 170.76 100.67 170.76 103.43L170.76 149.07C170.76 162.55 159.79 173.52 146.31 173.52L50.9 173.52C37.42 173.52 26.45 162.55 26.45 149.07L26.45 56.9C26.45 43.42 37.42 32.45 50.9 32.45L99.1899 32.45C101.95 32.45 104.19 30.21 104.19 27.45C104.19 24.69 101.95 22.45 99.1899 22.45L50.9 22.45Z"></path><path id="路径 6" fill-rule="evenodd" style="fill:#7BD3FF" opacity="1" d="M74.4521 118.965C73.5821 122.855 76.9621 126.375 80.8821 125.665L102.782 121.695C103.902 121.495 104.922 120.955 105.732 120.155L179.282 46.6051C180.322 45.5651 180.912 44.1451 180.912 42.6651C180.912 41.1951 180.322 39.7751 179.282 38.7251L162.182 21.6251C161.132 20.5851 159.722 19.9951 158.242 19.9951C156.762 19.9951 155.342 20.5851 154.302 21.6251L80.6621 95.2651C79.9121 96.0151 79.3921 96.9551 79.1621 97.9851L74.4521 118.965Z"></path><path id="路径 7" fill-rule="evenodd" style="fill:#AEECFF" opacity="1" d="M158.679 21.7651C157.199 21.7651 155.789 22.3551 154.739 23.3951L81.0988 97.0351C80.3488 97.7851 79.8288 98.7251 79.5988 99.7551L74.8888 120.735C74.6088 121.965 74.7588 123.155 75.2188 124.185L169.579 30.3751L162.619 23.3951C161.579 22.3551 160.159 21.7651 158.679 21.7651Z"></path><path id="分组 1" fill-rule="evenodd" style="fill:#434A54" opacity="1" d="M81.7842 130.59L103.674 126.62C105.784 126.24 107.744 125.21 109.264 123.69L182.814 50.14C184.814 48.15 185.914 45.49 185.914 42.67C185.914 39.85 184.814 37.2 182.814 35.2L165.714 18.1C161.594 13.98 154.884 13.98 150.764 18.1L77.1242 91.74C75.7042 93.16 74.7242 94.94 74.2842 96.9L69.5742 117.88C68.7942 121.34 69.8042 124.95 72.2642 127.51C74.2842 129.61 77.0342 130.76 79.8842 130.76C80.5142 130.76 81.1542 130.71 81.7842 130.59ZM175.751 43.08C175.971 42.85 175.971 42.5 175.751 42.27L158.651 25.17C158.541 25.07 158.391 25.01 158.241 25.01C158.091 25.01 157.941 25.07 157.841 25.18L84.2007 98.81C84.1207 98.89 84.0707 98.98 84.0507 99.09L79.3407 120.07C79.3207 120.14 79.2707 120.37 79.4907 120.59C79.7041 120.803 79.9175 120.772 79.994 120.761L80.0007 120.76L101.901 116.79C102.011 116.77 102.121 116.71 102.201 116.63L175.751 43.08Z"></path></g></g><defs><rect id="path_0" x="0" y="0" width="200" height="200" rx="0" ry="0"/></defs></svg>